<svg width="374" height="114" viewBox="0 0 374 114" fill="none" xmlns="http://www.w3.org/2000/svg">
<g clip-path="url(#clip0_2345_2)">
<g clip-path="url(#clip1_2345_2)">
<path d="M163.028 59.1079H157.132V54.9599H161.828C163.202 54.9599 164.315 54.7512 165.167 54.3338C166.019 53.899 166.645 53.2903 167.045 52.5076C167.445 51.725 167.645 50.8032 167.645 49.7423C167.645 48.8727 167.419 48.0726 166.967 47.3422C166.532 46.6117 165.854 46.0291 164.932 45.5943C164.01 45.1421 162.836 44.916 161.41 44.916C160.332 44.916 159.349 45.1073 158.462 45.4899C157.575 45.8725 156.871 46.4117 156.349 47.1074C155.827 47.7857 155.567 48.6118 155.567 49.5858H147.766C147.766 47.9161 148.123 46.4204 148.836 45.0986C149.566 43.7594 150.558 42.6289 151.81 41.7071C153.079 40.7679 154.54 40.0549 156.193 39.5679C157.845 39.0809 159.584 38.8374 161.41 38.8374C163.55 38.8374 165.48 39.0722 167.202 39.5418C168.924 39.994 170.402 40.6723 171.637 41.5767C172.872 42.4811 173.82 43.6029 174.48 44.9421C175.141 46.2812 175.472 47.8378 175.472 49.6118C175.472 50.9162 175.176 52.1424 174.585 53.2903C173.993 54.4382 173.15 55.4469 172.054 56.3165C170.959 57.1861 169.645 57.8731 168.115 58.3775C166.584 58.8644 164.889 59.1079 163.028 59.1079ZM157.132 56.8383H163.028C165.097 56.8383 166.932 57.0557 168.532 57.4905C170.15 57.9253 171.515 58.5601 172.628 59.3949C173.759 60.2297 174.611 61.2646 175.185 62.4994C175.776 63.7168 176.072 65.1169 176.072 66.6996C176.072 68.4736 175.707 70.0476 174.976 71.4215C174.263 72.7955 173.246 73.9608 171.924 74.9174C170.619 75.8739 169.072 76.5957 167.28 77.0827C165.506 77.5697 163.55 77.8131 161.41 77.8131C159.706 77.8131 158.01 77.6044 156.323 77.187C154.636 76.7522 153.106 76.0913 151.732 75.2043C150.358 74.3173 149.262 73.1782 148.444 71.7868C147.627 70.3954 147.218 68.7258 147.218 66.7779H155.071C155.071 67.6996 155.34 68.5432 155.88 69.3084C156.419 70.0563 157.167 70.6563 158.123 71.1085C159.08 71.5433 160.175 71.7607 161.41 71.7607C162.854 71.7607 164.08 71.5346 165.089 71.0824C166.115 70.6302 166.889 70.0128 167.411 69.2301C167.95 68.4301 168.219 67.5518 168.219 66.5952C168.219 65.5691 168.08 64.6995 167.802 63.9864C167.524 63.2733 167.115 62.6907 166.576 62.2385C166.037 61.7689 165.367 61.4298 164.567 61.2211C163.784 61.0124 162.871 60.908 161.828 60.908H157.132V56.8383ZM196.734 60.6471H186.977L186.925 55.273H195.116C196.56 55.273 197.742 55.0904 198.664 54.7251C199.586 54.3425 200.273 53.7946 200.725 53.0816C201.195 52.3511 201.43 51.4641 201.43 50.4206C201.43 49.2379 201.203 48.2813 200.751 47.5509C200.316 46.8204 199.629 46.2899 198.69 45.9595C197.769 45.629 196.577 45.4638 195.116 45.4638H189.69V77.3175H181.863V39.3331H195.116C197.325 39.3331 199.299 39.5418 201.038 39.9592C202.795 40.3766 204.282 41.0114 205.499 41.8637C206.717 42.7159 207.647 43.7942 208.291 45.0986C208.934 46.3856 209.256 47.9161 209.256 49.6901C209.256 51.2554 208.899 52.6989 208.186 54.0207C207.491 55.3425 206.386 56.4209 204.873 57.2557C203.377 58.0905 201.421 58.5514 199.003 58.6383L196.734 60.6471ZM196.395 77.3175H184.837L187.89 71.2128H196.395C197.769 71.2128 198.89 70.9954 199.76 70.5606C200.63 70.1084 201.273 69.4997 201.69 68.7345C202.108 67.9692 202.317 67.0909 202.317 66.0996C202.317 64.9865 202.125 64.0212 201.743 63.2038C201.377 62.3863 200.786 61.7602 199.969 61.3254C199.151 60.8732 198.073 60.6471 196.734 60.6471H189.194L189.246 55.273H198.638L200.438 57.3861C202.751 57.3513 204.612 57.76 206.021 58.6123C207.447 59.4471 208.482 60.5341 209.126 61.8733C209.786 63.2125 210.117 64.6473 210.117 66.1778C210.117 68.6127 209.586 70.665 208.526 72.3346C207.465 73.9869 205.908 75.2304 203.856 76.0652C201.821 76.9001 199.334 77.3175 196.395 77.3175ZM241.475 71.2128V77.3175H221.257V71.2128H241.475ZM223.813 39.3331V77.3175H215.987V39.3331H223.813ZM238.84 54.8034V60.7515H221.257V54.8034H238.84ZM241.449 39.3331V45.4638H221.257V39.3331H241.449ZM260.232 59.1079H254.336V54.9599H259.032C260.406 54.9599 261.519 54.7512 262.372 54.3338C263.224 53.899 263.85 53.2903 264.25 52.5076C264.65 51.725 264.85 50.8032 264.85 49.7423C264.85 48.8727 264.624 48.0726 264.172 47.3422C263.737 46.6117 263.058 46.0291 262.137 45.5943C261.215 45.1421 260.041 44.916 258.615 44.916C257.536 44.916 256.554 45.1073 255.667 45.4899C254.78 45.8725 254.075 46.4117 253.554 47.1074C253.032 47.7857 252.771 48.6118 252.771 49.5858H244.971C244.971 47.9161 245.327 46.4204 246.04 45.0986C246.771 43.7594 247.762 42.6289 249.014 41.7071C250.284 40.7679 251.745 40.0549 253.397 39.5679C255.049 39.0809 256.789 38.8374 258.615 38.8374C260.754 38.8374 262.685 39.0722 264.406 39.5418C266.128 39.994 267.607 40.6723 268.841 41.5767C270.076 42.4811 271.024 43.6029 271.685 44.9421C272.346 46.2812 272.676 47.8378 272.676 49.6118C272.676 50.9162 272.381 52.1424 271.789 53.2903C271.198 54.4382 270.354 55.4469 269.259 56.3165C268.163 57.1861 266.85 57.8731 265.319 58.3775C263.789 58.8644 262.093 59.1079 260.232 59.1079ZM254.336 56.8383H260.232C262.302 56.8383 264.137 57.0557 265.737 57.4905C267.354 57.9253 268.72 58.5601 269.833 59.3949C270.963 60.2297 271.815 61.2646 272.389 62.4994C272.981 63.7168 273.276 65.1169 273.276 66.6996C273.276 68.4736 272.911 70.0476 272.181 71.4215C271.468 72.7955 270.45 73.9608 269.128 74.9174C267.824 75.8739 266.276 76.5957 264.485 77.0827C262.711 77.5697 260.754 77.8131 258.615 77.8131C256.91 77.8131 255.215 77.6044 253.528 77.187C251.841 76.7522 250.31 76.0913 248.936 75.2043C247.562 74.3173 246.466 73.1782 245.649 71.7868C244.832 70.3954 244.423 68.7258 244.423 66.7779H252.275C252.275 67.6996 252.545 68.5432 253.084 69.3084C253.623 70.0563 254.371 70.6563 255.328 71.1085C256.284 71.5433 257.38 71.7607 258.615 71.7607C260.058 71.7607 261.284 71.5346 262.293 71.0824C263.319 70.6302 264.093 70.0128 264.615 69.2301C265.154 68.4301 265.424 67.5518 265.424 66.5952C265.424 65.5691 265.285 64.6995 265.006 63.9864C264.728 63.2733 264.319 62.6907 263.78 62.2385C263.241 61.7689 262.572 61.4298 261.771 61.2211C260.989 61.0124 260.076 60.908 259.032 60.908H254.336V56.8383ZM309.2 71.2128V77.3175H281.833V71.2128H309.2ZM284.155 71.2128V86.631H276.798L276.381 71.2128H284.155ZM314.835 71.2128L314.157 86.657H306.982V71.2128H314.835ZM304.895 39.3331V45.4638H286.607V39.3331H304.895ZM310.478 39.3331V77.3175H302.678V39.3331H310.478ZM285.642 39.3331H293.469L292.451 54.8034C292.295 57.36 292.016 59.621 291.616 61.5863C291.234 63.5342 290.764 65.2473 290.208 66.7257C289.668 68.204 289.068 69.4997 288.408 70.6128C287.747 71.7085 287.051 72.6651 286.32 73.4825C285.59 74.2826 284.851 74.9956 284.103 75.6217C283.355 76.2305 282.625 76.7957 281.912 77.3175H277.424V71.2128H279.172C279.677 70.7954 280.207 70.2215 280.764 69.491C281.338 68.7606 281.877 67.7779 282.381 66.5431C282.903 65.2908 283.355 63.7081 283.738 61.795C284.138 59.8819 284.433 57.5513 284.625 54.8034L285.642 39.3331ZM334.74 45.8291L324.409 77.3175H316.087L330.201 39.3331H335.497L334.74 45.8291ZM343.323 77.3175L332.966 45.8291L332.131 39.3331H337.479L351.671 77.3175H343.323ZM342.854 63.1777V69.3084H322.792V63.1777H342.854Z" fill="white"/>
<path fill-rule="evenodd" clip-rule="evenodd" d="M71.2381 0.60318L57.7399 42.105H14.8413L26.8603 51.0635H64.3965L71.2381 30.2212L77.7099 51.0635H115.616L127.635 42.105H84.7364L71.2381 0.60318ZM101.522 59.9683H78.9476L86.5939 85.8599L69.6629 72.4416L51.8218 85.8599L60.0141 59.9683H37.9857L48.3628 68.0948L35.619 110.429L69.845 84.348L103.889 110.429L91.1452 68.0948L101.522 59.9683Z" fill="white"/>
</g>
<g clip-path="url(#clip2_2345_2)">
<g clip-path="url(#clip3_2345_2)">
<path d="M163.028 59.1079H157.132V54.9599H161.828C163.202 54.9599 164.315 54.7512 165.167 54.3338C166.019 53.899 166.645 53.2903 167.045 52.5076C167.445 51.725 167.645 50.8032 167.645 49.7423C167.645 48.8727 167.419 48.0726 166.967 47.3422C166.532 46.6117 165.854 46.0291 164.932 45.5943C164.01 45.1421 162.836 44.916 161.41 44.916C160.332 44.916 159.349 45.1073 158.462 45.4899C157.575 45.8725 156.871 46.4117 156.349 47.1074C155.827 47.7857 155.567 48.6118 155.567 49.5858H147.766C147.766 47.9161 148.123 46.4204 148.836 45.0986C149.566 43.7594 150.558 42.6289 151.81 41.7071C153.079 40.7679 154.54 40.0549 156.193 39.5679C157.845 39.0809 159.584 38.8374 161.41 38.8374C163.55 38.8374 165.48 39.0722 167.202 39.5418C168.924 39.994 170.402 40.6723 171.637 41.5767C172.872 42.4811 173.82 43.6029 174.48 44.9421C175.141 46.2812 175.472 47.8378 175.472 49.6118C175.472 50.9162 175.176 52.1424 174.585 53.2903C173.993 54.4382 173.15 55.4469 172.054 56.3165C170.959 57.1861 169.645 57.8731 168.115 58.3775C166.584 58.8644 164.889 59.1079 163.028 59.1079ZM157.132 56.8383H163.028C165.097 56.8383 166.932 57.0557 168.532 57.4905C170.15 57.9253 171.515 58.5601 172.628 59.3949C173.759 60.2297 174.611 61.2646 175.185 62.4994C175.776 63.7168 176.072 65.1169 176.072 66.6996C176.072 68.4736 175.707 70.0476 174.976 71.4215C174.263 72.7955 173.246 73.9608 171.924 74.9174C170.619 75.8739 169.072 76.5957 167.28 77.0827C165.506 77.5697 163.55 77.8131 161.41 77.8131C159.706 77.8131 158.01 77.6044 156.323 77.187C154.636 76.7522 153.106 76.0913 151.732 75.2043C150.358 74.3173 149.262 73.1782 148.444 71.7868C147.627 70.3954 147.218 68.7258 147.218 66.7779H155.071C155.071 67.6996 155.34 68.5432 155.88 69.3084C156.419 70.0563 157.167 70.6563 158.123 71.1085C159.08 71.5433 160.175 71.7607 161.41 71.7607C162.854 71.7607 164.08 71.5346 165.089 71.0824C166.115 70.6302 166.889 70.0128 167.411 69.2301C167.95 68.4301 168.219 67.5518 168.219 66.5952C168.219 65.5691 168.08 64.6995 167.802 63.9864C167.524 63.2733 167.115 62.6907 166.576 62.2385C166.037 61.7689 165.367 61.4298 164.567 61.2211C163.784 61.0124 162.871 60.908 161.828 60.908H157.132V56.8383ZM196.734 60.6471H186.977L186.925 55.273H195.116C196.56 55.273 197.742 55.0904 198.664 54.7251C199.586 54.3425 200.273 53.7946 200.725 53.0816C201.195 52.3511 201.43 51.4641 201.43 50.4206C201.43 49.2379 201.203 48.2813 200.751 47.5509C200.316 46.8204 199.629 46.2899 198.69 45.9595C197.769 45.629 196.577 45.4638 195.116 45.4638H189.69V77.3175H181.863V39.3331H195.116C197.325 39.3331 199.299 39.5418 201.038 39.9592C202.795 40.3766 204.282 41.0114 205.499 41.8637C206.717 42.7159 207.647 43.7942 208.291 45.0986C208.934 46.3856 209.256 47.9161 209.256 49.6901C209.256 51.2554 208.899 52.6989 208.186 54.0207C207.491 55.3425 206.386 56.4209 204.873 57.2557C203.377 58.0905 201.421 58.5514 199.003 58.6383L196.734 60.6471ZM196.395 77.3175H184.837L187.89 71.2128H196.395C197.769 71.2128 198.89 70.9954 199.76 70.5606C200.63 70.1084 201.273 69.4997 201.69 68.7345C202.108 67.9692 202.317 67.0909 202.317 66.0996C202.317 64.9865 202.125 64.0212 201.743 63.2038C201.377 62.3863 200.786 61.7602 199.969 61.3254C199.151 60.8732 198.073 60.6471 196.734 60.6471H189.194L189.246 55.273H198.638L200.438 57.3861C202.751 57.3513 204.612 57.76 206.021 58.6123C207.447 59.4471 208.482 60.5341 209.126 61.8733C209.786 63.2125 210.117 64.6473 210.117 66.1778C210.117 68.6127 209.586 70.665 208.526 72.3346C207.465 73.9869 205.908 75.2304 203.856 76.0652C201.821 76.9001 199.334 77.3175 196.395 77.3175ZM241.475 71.2128V77.3175H221.257V71.2128H241.475ZM223.813 39.3331V77.3175H215.987V39.3331H223.813ZM238.84 54.8034V60.7515H221.257V54.8034H238.84ZM241.449 39.3331V45.4638H221.257V39.3331H241.449ZM260.232 59.1079H254.336V54.9599H259.032C260.406 54.9599 261.519 54.7512 262.372 54.3338C263.224 53.899 263.85 53.2903 264.25 52.5076C264.65 51.725 264.85 50.8032 264.85 49.7423C264.85 48.8727 264.624 48.0726 264.172 47.3422C263.737 46.6117 263.058 46.0291 262.137 45.5943C261.215 45.1421 260.041 44.916 258.615 44.916C257.536 44.916 256.554 45.1073 255.667 45.4899C254.78 45.8725 254.075 46.4117 253.554 47.1074C253.032 47.7857 252.771 48.6118 252.771 49.5858H244.971C244.971 47.9161 245.327 46.4204 246.04 45.0986C246.771 43.7594 247.762 42.6289 249.014 41.7071C250.284 40.7679 251.745 40.0549 253.397 39.5679C255.049 39.0809 256.789 38.8374 258.615 38.8374C260.754 38.8374 262.685 39.0722 264.406 39.5418C266.128 39.994 267.607 40.6723 268.841 41.5767C270.076 42.4811 271.024 43.6029 271.685 44.9421C272.346 46.2812 272.676 47.8378 272.676 49.6118C272.676 50.9162 272.381 52.1424 271.789 53.2903C271.198 54.4382 270.354 55.4469 269.259 56.3165C268.163 57.1861 266.85 57.8731 265.319 58.3775C263.789 58.8644 262.093 59.1079 260.232 59.1079ZM254.336 56.8383H260.232C262.302 56.8383 264.137 57.0557 265.737 57.4905C267.354 57.9253 268.72 58.5601 269.833 59.3949C270.963 60.2297 271.815 61.2646 272.389 62.4994C272.981 63.7168 273.276 65.1169 273.276 66.6996C273.276 68.4736 272.911 70.0476 272.181 71.4215C271.468 72.7955 270.45 73.9608 269.128 74.9174C267.824 75.8739 266.276 76.5957 264.485 77.0827C262.711 77.5697 260.754 77.8131 258.615 77.8131C256.91 77.8131 255.215 77.6044 253.528 77.187C251.841 76.7522 250.31 76.0913 248.936 75.2043C247.562 74.3173 246.466 73.1782 245.649 71.7868C244.832 70.3954 244.423 68.7258 244.423 66.7779H252.275C252.275 67.6996 252.545 68.5432 253.084 69.3084C253.623 70.0563 254.371 70.6563 255.328 71.1085C256.284 71.5433 257.38 71.7607 258.615 71.7607C260.058 71.7607 261.284 71.5346 262.293 71.0824C263.319 70.6302 264.093 70.0128 264.615 69.2301C265.154 68.4301 265.424 67.5518 265.424 66.5952C265.424 65.5691 265.285 64.6995 265.006 63.9864C264.728 63.2733 264.319 62.6907 263.78 62.2385C263.241 61.7689 262.572 61.4298 261.771 61.2211C260.989 61.0124 260.076 60.908 259.032 60.908H254.336V56.8383ZM309.2 71.2128V77.3175H281.833V71.2128H309.2ZM284.155 71.2128V86.631H276.798L276.381 71.2128H284.155ZM314.835 71.2128L314.157 86.657H306.982V71.2128H314.835ZM304.895 39.3331V45.4638H286.607V39.3331H304.895ZM310.478 39.3331V77.3175H302.678V39.3331H310.478ZM285.642 39.3331H293.469L292.451 54.8034C292.295 57.36 292.016 59.621 291.616 61.5863C291.234 63.5342 290.764 65.2473 290.208 66.7257C289.668 68.204 289.068 69.4997 288.408 70.6128C287.747 71.7085 287.051 72.6651 286.32 73.4825C285.59 74.2826 284.851 74.9956 284.103 75.6217C283.355 76.2305 282.625 76.7957 281.912 77.3175H277.424V71.2128H279.172C279.677 70.7954 280.207 70.2215 280.764 69.491C281.338 68.7606 281.877 67.7779 282.381 66.5431C282.903 65.2908 283.355 63.7081 283.738 61.795C284.138 59.8819 284.433 57.5513 284.625 54.8034L285.642 39.3331ZM334.74 45.8291L324.409 77.3175H316.087L330.201 39.3331H335.497L334.74 45.8291ZM343.323 77.3175L332.966 45.8291L332.131 39.3331H337.479L351.671 77.3175H343.323ZM342.854 63.1777V69.3084H322.792V63.1777H342.854Z" fill="white"/>
<path fill-rule="evenodd" clip-rule="evenodd" d="M71.2381 0.60318L57.7399 42.105H14.8413L26.8603 51.0635H64.3965L71.2381 30.2212L77.7099 51.0635H115.616L127.635 42.105H84.7364L71.2381 0.60318ZM101.522 59.9683H78.9476L86.5939 85.8599L69.6629 72.4416L51.8218 85.8599L60.0141 59.9683H37.9857L48.3628 68.0948L35.619 110.429L69.845 84.348L103.889 110.429L91.1452 68.0948L101.522 59.9683Z" fill="white"/>
</g>
</g>
</g>
<defs>
<clipPath id="clip0_2345_2">
<rect width="374" height="112.794" fill="white" transform="translate(0 0.60318)"/>
</clipPath>
<clipPath id="clip1_2345_2">
<rect width="344.317" height="109.825" fill="white" transform="translate(14.8413 0.60318)"/>
</clipPath>
<clipPath id="clip2_2345_2">
<rect width="374" height="112.794" fill="white" transform="translate(0 0.60318)"/>
</clipPath>
<clipPath id="clip3_2345_2">
<rect width="344.317" height="109.825" fill="white" transform="translate(14.8413 0.60318)"/>
</clipPath>
</defs>
</svg>
